<mxfile host="app.diagrams.net" modified="2020-10-05T09:35:52.602Z" agent="5.0 (Windows NT 10.0; Win64; x64) AppleWebKit/537.36 (KHTML, like Gecko) Chrome/85.0.4183.121 Safari/537.36" etag="kb2N-acGOtdFyW331oIH" version="13.7.7" type="github">
  <diagram id="VaJ7-ko4y-uZnoXssvZx" name="Page-1">
    <mxGraphModel dx="1038" dy="580" grid="1" gridSize="10" guides="1" tooltips="1" connect="1" arrows="1" fold="1" page="1" pageScale="1" pageWidth="827" pageHeight="1169" math="0" shadow="0">
      <root>
        <mxCell id="0" />
        <mxCell id="1" parent="0" />
        <mxCell id="TSpwij709v6648APm9oL-2" value="관리" style="rounded=0;whiteSpace=wrap;html=1;" vertex="1" parent="1">
          <mxGeometry x="230" y="140" width="100" height="50" as="geometry" />
        </mxCell>
        <mxCell id="TSpwij709v6648APm9oL-3" value="인력" style="rounded=0;whiteSpace=wrap;html=1;" vertex="1" parent="1">
          <mxGeometry x="600" y="140" width="100" height="50" as="geometry" />
        </mxCell>
        <mxCell id="TSpwij709v6648APm9oL-4" value="고객" style="rounded=0;whiteSpace=wrap;html=1;" vertex="1" parent="1">
          <mxGeometry x="230" y="330" width="100" height="50" as="geometry" />
        </mxCell>
        <mxCell id="TSpwij709v6648APm9oL-5" value="시설" style="rounded=0;whiteSpace=wrap;html=1;" vertex="1" parent="1">
          <mxGeometry x="600" y="330" width="100" height="50" as="geometry" />
        </mxCell>
        <mxCell id="TSpwij709v6648APm9oL-6" value="파견" style="rhombus;whiteSpace=wrap;html=1;" vertex="1" parent="1">
          <mxGeometry x="400" y="140" width="100" height="50" as="geometry" />
        </mxCell>
        <mxCell id="TSpwij709v6648APm9oL-7" value="서비스" style="rounded=0;whiteSpace=wrap;html=1;" vertex="1" parent="1">
          <mxGeometry x="414" y="40" width="100" height="50" as="geometry" />
        </mxCell>
      </root>
    </mxGraphModel>
  </diagram>
</mxfile>
